<mxfile host="app.diagrams.net" modified="2023-06-21T07:38:56.861Z" agent="Mozilla/5.0 (Windows NT 10.0; Win64; x64) AppleWebKit/537.36 (KHTML, like Gecko) Chrome/114.0.0.0 Safari/537.36" etag="SKpigFlyDUDGs4YE-n84" version="21.5.0" type="github">
  <diagram name="페이지-1" id="7EG3P1tsVLLwujQFk9k3">
    <mxGraphModel dx="2074" dy="1156" grid="1" gridSize="10" guides="1" tooltips="1" connect="1" arrows="1" fold="1" page="1" pageScale="1" pageWidth="827" pageHeight="1169" math="0" shadow="0">
      <root>
        <mxCell id="0" />
        <mxCell id="1" parent="0" />
        <mxCell id="kgBtwzYbKkPKxoFV5lpx-21" style="edgeStyle=orthogonalEdgeStyle;rounded=0;orthogonalLoop=1;jettySize=auto;html=1;exitX=1;exitY=0.5;exitDx=0;exitDy=0;entryX=0.5;entryY=1;entryDx=0;entryDy=0;" edge="1" parent="1" source="kgBtwzYbKkPKxoFV5lpx-5" target="kgBtwzYbKkPKxoFV5lpx-8">
          <mxGeometry relative="1" as="geometry" />
        </mxCell>
        <mxCell id="kgBtwzYbKkPKxoFV5lpx-24" style="edgeStyle=orthogonalEdgeStyle;rounded=0;orthogonalLoop=1;jettySize=auto;html=1;exitX=0;exitY=0.5;exitDx=0;exitDy=0;entryX=1;entryY=0.5;entryDx=0;entryDy=0;" edge="1" parent="1" source="kgBtwzYbKkPKxoFV5lpx-5" target="kgBtwzYbKkPKxoFV5lpx-6">
          <mxGeometry relative="1" as="geometry" />
        </mxCell>
        <mxCell id="kgBtwzYbKkPKxoFV5lpx-32" style="edgeStyle=orthogonalEdgeStyle;rounded=0;orthogonalLoop=1;jettySize=auto;html=1;exitX=0;exitY=1;exitDx=0;exitDy=0;entryX=0.5;entryY=0;entryDx=0;entryDy=0;" edge="1" parent="1" source="kgBtwzYbKkPKxoFV5lpx-5" target="kgBtwzYbKkPKxoFV5lpx-31">
          <mxGeometry relative="1" as="geometry">
            <mxPoint x="310" y="320" as="targetPoint" />
            <Array as="points">
              <mxPoint x="320" y="280" />
            </Array>
          </mxGeometry>
        </mxCell>
        <mxCell id="kgBtwzYbKkPKxoFV5lpx-34" style="edgeStyle=orthogonalEdgeStyle;rounded=0;orthogonalLoop=1;jettySize=auto;html=1;exitX=1;exitY=1;exitDx=0;exitDy=0;entryX=0.5;entryY=0;entryDx=0;entryDy=0;" edge="1" parent="1" source="kgBtwzYbKkPKxoFV5lpx-5" target="kgBtwzYbKkPKxoFV5lpx-33">
          <mxGeometry relative="1" as="geometry">
            <Array as="points">
              <mxPoint x="480" y="280" />
            </Array>
          </mxGeometry>
        </mxCell>
        <mxCell id="kgBtwzYbKkPKxoFV5lpx-5" value="MENU" style="rhombus;whiteSpace=wrap;html=1;" vertex="1" parent="1">
          <mxGeometry x="360" y="220" width="80" height="80" as="geometry" />
        </mxCell>
        <mxCell id="kgBtwzYbKkPKxoFV5lpx-25" style="edgeStyle=orthogonalEdgeStyle;rounded=0;orthogonalLoop=1;jettySize=auto;html=1;exitX=0.5;exitY=0;exitDx=0;exitDy=0;entryX=0.5;entryY=1;entryDx=0;entryDy=0;" edge="1" parent="1" source="kgBtwzYbKkPKxoFV5lpx-6" target="kgBtwzYbKkPKxoFV5lpx-10">
          <mxGeometry relative="1" as="geometry" />
        </mxCell>
        <mxCell id="kgBtwzYbKkPKxoFV5lpx-6" value="Generate maze" style="rounded=0;whiteSpace=wrap;html=1;" vertex="1" parent="1">
          <mxGeometry x="160" y="230" width="120" height="60" as="geometry" />
        </mxCell>
        <mxCell id="kgBtwzYbKkPKxoFV5lpx-28" style="edgeStyle=orthogonalEdgeStyle;rounded=0;orthogonalLoop=1;jettySize=auto;html=1;exitX=0;exitY=0.5;exitDx=0;exitDy=0;entryX=1;entryY=0;entryDx=0;entryDy=0;" edge="1" parent="1" source="kgBtwzYbKkPKxoFV5lpx-8" target="kgBtwzYbKkPKxoFV5lpx-5">
          <mxGeometry relative="1" as="geometry" />
        </mxCell>
        <mxCell id="kgBtwzYbKkPKxoFV5lpx-8" value="Open" style="rounded=0;whiteSpace=wrap;html=1;" vertex="1" parent="1">
          <mxGeometry x="470" y="140" width="120" height="60" as="geometry" />
        </mxCell>
        <mxCell id="kgBtwzYbKkPKxoFV5lpx-26" style="edgeStyle=orthogonalEdgeStyle;rounded=0;orthogonalLoop=1;jettySize=auto;html=1;exitX=0.5;exitY=0;exitDx=0;exitDy=0;entryX=0.5;entryY=1;entryDx=0;entryDy=0;" edge="1" parent="1" source="kgBtwzYbKkPKxoFV5lpx-10" target="kgBtwzYbKkPKxoFV5lpx-11">
          <mxGeometry relative="1" as="geometry" />
        </mxCell>
        <mxCell id="kgBtwzYbKkPKxoFV5lpx-10" value="g_maze()" style="rounded=0;whiteSpace=wrap;html=1;" vertex="1" parent="1">
          <mxGeometry x="160" y="140" width="120" height="60" as="geometry" />
        </mxCell>
        <mxCell id="kgBtwzYbKkPKxoFV5lpx-27" style="edgeStyle=orthogonalEdgeStyle;rounded=0;orthogonalLoop=1;jettySize=auto;html=1;exitX=1;exitY=0.5;exitDx=0;exitDy=0;entryX=0;entryY=0;entryDx=0;entryDy=0;" edge="1" parent="1" source="kgBtwzYbKkPKxoFV5lpx-11" target="kgBtwzYbKkPKxoFV5lpx-5">
          <mxGeometry relative="1" as="geometry" />
        </mxCell>
        <mxCell id="kgBtwzYbKkPKxoFV5lpx-11" value="파일 저장" style="rounded=0;whiteSpace=wrap;html=1;" vertex="1" parent="1">
          <mxGeometry x="160" y="50" width="120" height="60" as="geometry" />
        </mxCell>
        <mxCell id="kgBtwzYbKkPKxoFV5lpx-30" style="edgeStyle=orthogonalEdgeStyle;rounded=0;orthogonalLoop=1;jettySize=auto;html=1;exitX=0;exitY=0.5;exitDx=0;exitDy=0;" edge="1" parent="1" target="kgBtwzYbKkPKxoFV5lpx-5">
          <mxGeometry relative="1" as="geometry">
            <mxPoint x="650" y="80" as="sourcePoint" />
          </mxGeometry>
        </mxCell>
        <mxCell id="kgBtwzYbKkPKxoFV5lpx-31" value="Show DFS" style="rounded=0;whiteSpace=wrap;html=1;" vertex="1" parent="1">
          <mxGeometry x="260" y="360" width="120" height="60" as="geometry" />
        </mxCell>
        <mxCell id="kgBtwzYbKkPKxoFV5lpx-33" value="Show BFS" style="rounded=0;whiteSpace=wrap;html=1;" vertex="1" parent="1">
          <mxGeometry x="420" y="360" width="120" height="60" as="geometry" />
        </mxCell>
        <mxCell id="kgBtwzYbKkPKxoFV5lpx-35" value="START" style="rounded=0;whiteSpace=wrap;html=1;" vertex="1" parent="1">
          <mxGeometry x="650" y="50" width="120" height="60" as="geometry" />
        </mxCell>
      </root>
    </mxGraphModel>
  </diagram>
</mxfile>
